HIERARCHY
ROOT Hips
{
	OFFSET 0.000000 71.427986 0.000000
	CHANNELS 6 Xposition Yposition Zposition Xrotation Yrotation Zrotation
	JOINT Pelvis
	{
		OFFSET 0.000000 0.000000 0.000000
		CHANNELS 3 Xrotation Yrotation Zrotation
		JOINT LeftUpLeg
		{
			OFFSET 6.797100 -2.508499 -1.318700
			CHANNELS 3 Xrotation Yrotation Zrotation
			JOINT LeftLeg
			{
				OFFSET 0.069008 -29.241863 0.690200
				CHANNELS 3 Xrotation Yrotation Zrotation
				JOINT LeftFoot
				{
					OFFSET -0.069008 -29.568123 -0.266800
					CHANNELS 3 Xrotation Yrotation Zrotation
					JOINT LeftToeBase
					{
						OFFSET 3.145500 -8.631000 16.059900
						CHANNELS 3 Xrotation Yrotation Zrotation
						End Site
						{
							OFFSET 0.000000 18.501587 0.000000
						}
					}
				}
			}
			JOINT Left_ShortSleeve
			{
				OFFSET 0.265923 -10.480953 1.153800
				CHANNELS 3 Xrotation Yrotation Zrotation
				End Site
				{
					OFFSET 1.725763 19.823879 0.000000
				}
			}
		}
		JOINT RightUpLeg
		{
			OFFSET -6.797100 -2.508499 -1.318700
			CHANNELS 3 Xrotation Yrotation Zrotation
			JOINT RightLeg
			{
				OFFSET -0.082453 -29.241932 0.688000
				CHANNELS 3 Xrotation Yrotation Zrotation
				JOINT RightFoot
				{
					OFFSET 0.082453 -29.568058 -0.264600
					CHANNELS 3 Xrotation Yrotation Zrotation
					JOINT RightToeBase
					{
						OFFSET -3.115300 -8.682800 16.113400
						CHANNELS 3 Xrotation Yrotation Zrotation
						End Site
						{
							OFFSET 0.000000 18.567114 0.000000
						}
					}
				}
			}
			JOINT Right_ShortSleeve
			{
				OFFSET -0.265923 -10.480953 1.153800
				CHANNELS 3 Xrotation Yrotation Zrotation
				End Site
				{
					OFFSET -1.725766 19.823910 0.000000
				}
			}
		}
	}
	JOINT Spine
	{
		OFFSET 0.000000 13.368103 0.470500
		CHANNELS 3 Xrotation Yrotation Zrotation
		JOINT Spine1
		{
			OFFSET 0.147000 13.837402 0.538800
			CHANNELS 3 Xrotation Yrotation Zrotation
			JOINT Spine2
			{
				OFFSET 0.168000 16.242897 -1.435500
				CHANNELS 3 Xrotation Yrotation Zrotation
				JOINT Neck
				{
					OFFSET 0.217200 18.631500 -1.679100
					CHANNELS 3 Xrotation Yrotation Zrotation
					JOINT Head
					{
						OFFSET 0.000000 6.599396 1.385900
						CHANNELS 3 Xrotation Yrotation Zrotation
						JOINT Hat
						{
							OFFSET -0.532200 27.220596 -10.096100
							CHANNELS 3 Xrotation Yrotation Zrotation
							End Site
							{
								OFFSET 0.000000 22.029861 0.000000
							}
						}
						JOINT HairD
						{
							OFFSET -10.777400 17.437393 -1.325900
							CHANNELS 3 Xrotation Yrotation Zrotation
							JOINT HairD1
							{
								OFFSET -3.290299 -11.051193 1.062200
								CHANNELS 3 Xrotation Yrotation Zrotation
								End Site
								{
									OFFSET 0.000000 11.579437 0.000000
								}
							}
						}
						JOINT HairB
						{
							OFFSET -10.777400 17.437393 1.467900
							CHANNELS 3 Xrotation Yrotation Zrotation
							JOINT HairB1
							{
								OFFSET -1.561200 -12.956299 3.590200
								CHANNELS 3 Xrotation Yrotation Zrotation
								End Site
								{
									OFFSET 0.000000 13.534866 0.000000
								}
							}
						}
						JOINT HairA
						{
							OFFSET 9.713100 17.437393 1.467900
							CHANNELS 3 Xrotation Yrotation Zrotation
							JOINT HairA1
							{
								OFFSET 1.561200 -12.956299 3.590200
								CHANNELS 3 Xrotation Yrotation Zrotation
								End Site
								{
									OFFSET 0.000000 13.534866 0.000000
								}
							}
						}
						JOINT HairC
						{
							OFFSET 9.713100 17.437393 -1.325900
							CHANNELS 3 Xrotation Yrotation Zrotation
							JOINT HairC1
							{
								OFFSET 3.290300 -11.051193 1.062200
								CHANNELS 3 Xrotation Yrotation Zrotation
								End Site
								{
									OFFSET 0.000000 11.579437 0.000000
								}
							}
						}
					}
				}
				JOINT LeftShoulder
				{
					OFFSET 5.101800 15.108002 -2.763700
					CHANNELS 3 Xrotation Yrotation Zrotation
					JOINT LeftArm
					{
						OFFSET 9.825497 2.506317 -1.597400
						CHANNELS 3 Xrotation Yrotation Zrotation
						JOINT LeftForeArm
						{
							OFFSET 21.966244 0.000000 0.000000
							CHANNELS 3 Xrotation Yrotation Zrotation
							JOINT LeftHand
							{
								OFFSET 33.879036 0.000000 0.000000
								CHANNELS 3 Xrotation Yrotation Zrotation
								JOINT LeftHandThumb1
								{
									OFFSET 6.715286 -2.359680 3.363841
									CHANNELS 3 Xrotation Yrotation Zrotation
									JOINT LeftHandThumb2
									{
										OFFSET 2.507072 -1.447464 1.447461
										CHANNELS 3 Xrotation Yrotation Zrotation
										JOINT LeftHandThumb3
										{
											OFFSET 2.898338 -1.673355 1.673357
											CHANNELS 3 Xrotation Yrotation Zrotation
											End Site
											{
												OFFSET -0.295959 3.727692 -0.131651
											}
										}
									}
								}
								JOINT LeftHandIndex1
								{
									OFFSET 14.190811 -0.254547 3.840278
									CHANNELS 3 Xrotation Yrotation Zrotation
									JOINT LeftHandIndex2
									{
										OFFSET 3.551727 0.000000 -0.000000
										CHANNELS 3 Xrotation Yrotation Zrotation
										JOINT LeftHandIndex3
										{
											OFFSET 2.894196 0.000000 0.000000
											CHANNELS 3 Xrotation Yrotation Zrotation
											End Site
											{
												OFFSET -1.000603 2.690872 0.366626
											}
										}
									}
								}
								JOINT LeftHandMiddle1
								{
									OFFSET 13.776489 0.000000 0.000000
									CHANNELS 3 Xrotation Yrotation Zrotation
									JOINT LeftHandMiddle2
									{
										OFFSET 3.438232 0.000000 0.000000
										CHANNELS 3 Xrotation Yrotation Zrotation
										JOINT LeftHandMiddle3
										{
											OFFSET 3.691551 0.000000 0.000000
											CHANNELS 3 Xrotation Yrotation Zrotation
											End Site
											{
												OFFSET -1.082298 3.499527 0.457670
											}
										}
									}
								}
								JOINT LeftHandRing1
								{
									OFFSET 13.966164 -0.268127 -3.067488
									CHANNELS 3 Xrotation Yrotation Zrotation
									JOINT LeftHandRing2
									{
										OFFSET 3.162567 0.000000 0.000000
										CHANNELS 3 Xrotation Yrotation Zrotation
										JOINT LeftHandRing3
										{
											OFFSET 3.324348 0.000000 0.000000
											CHANNELS 3 Xrotation Yrotation Zrotation
											End Site
											{
												OFFSET -0.861900 3.184998 0.405154
											}
										}
									}
								}
								JOINT LeftHandPinky1
								{
									OFFSET 13.131393 -0.168503 -5.746925
									CHANNELS 3 Xrotation Yrotation Zrotation
									JOINT LeftHandPinky2
									{
										OFFSET 2.849182 0.000000 0.000000
										CHANNELS 3 Xrotation Yrotation Zrotation
										JOINT LeftHandPinky3
										{
											OFFSET 2.805038 0.000000 0.000000
											CHANNELS 3 Xrotation Yrotation Zrotation
											End Site
											{
												OFFSET -0.882500 2.642609 0.325652
											}
										}
									}
								}
							}
							JOINT Left_Sleeve
							{
								OFFSET 6.592125 -0.646545 0.805568
								CHANNELS 3 Xrotation Yrotation Zrotation
								End Site
								{
									OFFSET -0.000179 20.275787 -0.000000
								}
							}
						}
					}
				}
				JOINT RightShoulder
				{
					OFFSET -5.731700 15.108002 -2.763700
					CHANNELS 3 Xrotation Yrotation Zrotation
					JOINT RightArm
					{
						OFFSET -9.825497 2.506317 -1.597400
						CHANNELS 3 Xrotation Yrotation Zrotation
						JOINT RightForeArm
						{
							OFFSET -21.966242 0.000000 0.000000
							CHANNELS 3 Xrotation Yrotation Zrotation
							JOINT RightHand
							{
								OFFSET -33.879032 0.000000 0.000000
								CHANNELS 3 Xrotation Yrotation Zrotation
								JOINT RightHandThumb1
								{
									OFFSET -6.715286 -2.359680 3.363841
									CHANNELS 3 Xrotation Yrotation Zrotation
									JOINT RightHandThumb2
									{
										OFFSET -2.507072 -1.447464 1.447461
										CHANNELS 3 Xrotation Yrotation Zrotation
										JOINT RightHandThumb3
										{
											OFFSET -2.898338 -1.673355 1.673357
											CHANNELS 3 Xrotation Yrotation Zrotation
											End Site
											{
												OFFSET 0.295959 3.727692 -0.131651
											}
										}
									}
								}
								JOINT RightHandIndex1
								{
									OFFSET -14.190811 -0.254547 3.840278
									CHANNELS 3 Xrotation Yrotation Zrotation
									JOINT RightHandIndex2
									{
										OFFSET -3.551727 0.000000 -0.000000
										CHANNELS 3 Xrotation Yrotation Zrotation
										JOINT RightHandIndex3
										{
											OFFSET -2.894196 0.000000 0.000000
											CHANNELS 3 Xrotation Yrotation Zrotation
											End Site
											{
												OFFSET 1.000603 2.690872 0.366626
											}
										}
									}
								}
								JOINT RightHandMiddle1
								{
									OFFSET -13.776489 0.000000 0.000000
									CHANNELS 3 Xrotation Yrotation Zrotation
									JOINT RightHandMiddle2
									{
										OFFSET -3.438232 0.000000 0.000000
										CHANNELS 3 Xrotation Yrotation Zrotation
										JOINT RightHandMiddle3
										{
											OFFSET -3.691551 0.000000 0.000000
											CHANNELS 3 Xrotation Yrotation Zrotation
											End Site
											{
												OFFSET 1.082298 3.499527 0.457670
											}
										}
									}
								}
								JOINT RightHandRing1
								{
									OFFSET -13.966164 -0.268127 -3.067488
									CHANNELS 3 Xrotation Yrotation Zrotation
									JOINT RightHandRing2
									{
										OFFSET -3.162567 0.000000 0.000000
										CHANNELS 3 Xrotation Yrotation Zrotation
										JOINT RightHandRing3
										{
											OFFSET -3.324348 0.000000 0.000000
											CHANNELS 3 Xrotation Yrotation Zrotation
											End Site
											{
												OFFSET 0.861900 3.184998 0.405154
											}
										}
									}
								}
								JOINT RightHandPinky1
								{
									OFFSET -13.131393 -0.168503 -5.746925
									CHANNELS 3 Xrotation Yrotation Zrotation
									JOINT RightHandPinky2
									{
										OFFSET -2.849182 0.000000 0.000000
										CHANNELS 3 Xrotation Yrotation Zrotation
										JOINT RightHandPinky3
										{
											OFFSET -2.805038 0.000000 0.000000
											CHANNELS 3 Xrotation Yrotation Zrotation
											End Site
											{
												OFFSET 0.882500 2.642609 0.325652
											}
										}
									}
								}
							}
							JOINT Right_Sleeve
							{
								OFFSET -6.592125 -0.646545 0.805568
								CHANNELS 3 Xrotation Yrotation Zrotation
								End Site
								{
									OFFSET 0.000179 20.275787 -0.000000
								}
							}
						}
					}
				}
				JOINT Bind_Right_JacketString
				{
					OFFSET -3.534800 11.969597 7.200700
					CHANNELS 3 Xrotation Yrotation Zrotation
					JOINT Bind_Right_JacketString1
					{
						OFFSET -0.319900 -6.102600 2.794100
						CHANNELS 3 Xrotation Yrotation Zrotation
						End Site
						{
							OFFSET 0.000000 6.719452 0.000000
						}
					}
				}
				JOINT Bind_Left_JacketString
				{
					OFFSET 2.904800 11.969597 7.200700
					CHANNELS 3 Xrotation Yrotation Zrotation
					JOINT Bind_Left_JacketString1
					{
						OFFSET 0.364800 -5.904503 3.186800
						CHANNELS 3 Xrotation Yrotation Zrotation
						End Site
						{
							OFFSET 0.000000 6.719513 0.000000
						}
					}
				}
				JOINT HairE
				{
					OFFSET 5.915200 17.612701 -11.592200
					CHANNELS 3 Xrotation Yrotation Zrotation
					JOINT HairE1
					{
						OFFSET 0.289200 -7.171898 -1.284500
						CHANNELS 3 Xrotation Yrotation Zrotation
						End Site
						{
							OFFSET 0.000000 7.291756 0.000000
						}
					}
				}
				JOINT HairF
				{
					OFFSET -0.864800 17.612701 -11.592200
					CHANNELS 3 Xrotation Yrotation Zrotation
					JOINT HairF1
					{
						OFFSET 0.000000 -14.087097 -2.127501
						CHANNELS 3 Xrotation Yrotation Zrotation
						End Site
						{
							OFFSET 0.000000 14.246841 0.000000
						}
					}
				}
				JOINT HairG
				{
					OFFSET -8.087700 17.612701 -11.592200
					CHANNELS 3 Xrotation Yrotation Zrotation
					JOINT HairG1
					{
						OFFSET -0.293600 -6.081398 -0.910100
						CHANNELS 3 Xrotation Yrotation Zrotation
						End Site
						{
							OFFSET 0.000000 6.156120 0.000000
						}
					}
				}
			}
		}
	}
	JOINT Pouch
	{
		OFFSET 0.000000 4.394501 10.847300
		CHANNELS 3 Xrotation Yrotation Zrotation
		End Site
		{
			OFFSET 0.000000 21.880577 0.000000
		}
	}
	JOINT Bag
	{
		OFFSET -13.229000 4.813004 -0.593300
		CHANNELS 3 Xrotation Yrotation Zrotation
		End Site
		{
			OFFSET 0.000000 21.880577 0.000000
		}
	}
	JOINT OccupyGuyFacialAnim_Joint
	{
		OFFSET 1.000000 -70.206398 -1.655000
		CHANNELS 3 Xrotation Yrotation Zrotation
		End Site
		{
			OFFSET 0.000000 21.880577 0.000000
		}
	}
}
MOTION
Frames: 4
Frame Time: 0.016667
-0.108777 63.914200 0.225332 -4.051357 -61.115938 -2.271416 -0.000000 -0.000001 0.000000 -30.765665 13.011485 28.166488 43.720519 -9.281953 -10.069367 -12.430117 -2.801415 -6.699184 -0.000000 -0.000000 -0.000000 0.000005 0.000002 0.000001 -27.240951 -10.422021 -21.374117 46.796621 2.895892 -7.432937 -20.329254 4.319551 18.984859 -0.000000 0.000000 -0.000000 -0.000000 -0.000002 0.000000 10.530325 0.417483 -1.697684 7.138505 0.481493 -4.840607 7.341884 0.512811 -4.809184 -23.259403 25.805447 11.809882 -6.291530 25.717209 -2.641169 0.000000 0.000000 -0.000000 0.000000 0.000000 -0.000000 0.000000 0.000000 0.000000 0.000000 0.000000 0.000000 0.000000 0.000001 0.000000 0.000000 0.000000 0.000000 0.000000 0.000001 0.000000 0.000000 0.000000 -0.000000 0.000000 0.000000 -0.000000 -6.367301 -10.788172 -3.787800 -21.873380 6.546992 -38.737421 3.298283 -47.813609 1.501492 23.526242 -7.456315 15.579788 -1.743983 -11.605071 7.087507 1.175762 16.638464 -3.372741 0.000001 0.000002 0.000002 13.261897 -0.994759 14.608076 -0.163788 0.326154 -27.178238 -0.000000 0.000001 -0.000000 8.530531 -0.377328 3.011984 0.228018 0.647980 -25.974489 0.000000 0.000002 0.000003 6.138296 3.128080 -12.283907 0.030971 0.295601 -26.198147 -0.000003 -0.000003 -0.000003 -5.593227 7.672132 -9.955786 0.209712 0.277184 -42.660952 -0.000003 -0.000001 -0.000001 0.000000 -0.000002 0.000002 -5.546727 11.668537 2.442836 -42.804638 -24.538230 26.405977 34.764276 107.847239 -33.401432 -11.227970 18.802034 -0.896793 -0.426169 14.756543 -9.085203 -0.217018 -13.162726 4.783239 -0.000000 -0.000001 0.000001 19.387716 11.163741 -18.356926 -0.122751 -0.303381 13.011831 0.000001 0.000001 0.000000 4.365714 2.482355 -9.836897 0.357443 -0.462548 21.866688 -0.000001 -0.000000 -0.000004 -6.967538 -10.645255 0.698119 0.113412 -0.065234 21.132226 -0.000001 0.000000 -0.000000 -19.392958 -20.192998 0.968379 0.222124 -0.061977 31.820909 -0.000000 0.000001 0.000002 0.000000 0.000002 0.000001 -0.000001 -0.000002 0.000002 -0.000000 -0.000001 -0.000000 -0.000001 -0.000002 0.000002 -0.000001 -0.000002 0.000002 -0.000001 -0.000002 0.000002 -0.000000 -0.000001 -0.000000 -0.000001 -0.000002 0.000002 -0.000001 -0.000002 0.000002 -0.000001 -0.000002 0.000002 -0.000000 -0.000001 -0.000000 -0.000000 -0.000001 0.000000 -0.000000 -0.000001 0.000000 -0.000000 -0.000001 0.000000 
-0.129903 63.945854 0.227711 -3.888475 -60.895685 -1.880786 0.000000 0.000000 -0.000000 -30.494950 12.681308 27.561357 43.519045 -8.844210 -9.983719 -12.355333 -2.779857 -6.885841 0.000000 -0.000002 -0.000000 0.000001 -0.000002 0.000000 -27.334062 -10.550409 -21.725577 46.795375 3.014288 -7.424473 -20.365193 4.245173 18.947271 0.000000 -0.000000 0.000000 0.000001 -0.000001 -0.000000 10.590798 0.415224 -1.638164 7.257251 0.468909 -4.778354 7.460059 0.466602 -4.741545 -22.867975 25.805337 11.676783 -5.777270 25.649952 -2.782642 0.000000 -0.000000 -0.000000 0.000000 -0.000000 -0.000000 0.000000 -0.000000 -0.000000 0.000000 -0.000000 0.000000 0.000000 0.000000 0.000000 0.000000 -0.000000 0.000000 0.000000 0.000000 0.000000 0.000000 -0.000000 -0.000000 0.000000 -0.000000 -0.000000 -6.418700 -10.815720 -4.148093 -21.457108 6.690793 -38.715090 4.406712 -47.475620 2.146130 23.256352 -7.467383 15.380466 -1.783005 -11.815731 7.005586 1.104986 16.445759 -3.450762 0.000004 0.000001 0.000003 13.259817 -0.994084 14.834551 -0.164112 0.325788 -26.951602 0.000001 0.000001 -0.000000 8.532565 -0.380228 3.238590 0.227727 0.647165 -25.747843 0.000001 -0.000000 -0.000001 6.140727 3.125708 -12.057592 0.030058 0.294076 -25.971494 -0.000000 -0.000001 0.000001 -5.598534 7.673641 -9.728855 0.208895 0.276919 -42.434251 -0.000001 -0.000004 0.000004 0.000004 -0.000000 -0.000001 -5.573477 11.590786 2.601376 -43.195175 -24.472059 26.216972 33.970243 108.583048 -32.512322 -11.201336 19.600900 -1.776044 -0.422782 14.740475 -9.092046 -0.211406 -13.177346 4.776909 0.000000 0.000002 -0.000000 19.389077 11.163739 -18.339760 -0.122766 -0.303276 13.029350 -0.000001 -0.000003 -0.000000 4.365201 2.482195 -9.819379 0.357976 -0.462933 21.884160 -0.000004 -0.000001 0.000003 -6.967628 -10.645394 0.715577 0.113406 -0.065613 21.149679 0.000004 -0.000000 0.000002 -19.395260 -20.194276 0.984127 0.222198 -0.062350 31.838486 0.000001 0.000000 0.000001 -0.000002 -0.000003 0.000003 0.000002 0.000003 -0.000002 0.000003 -0.000002 0.000001 0.000002 0.000003 -0.000003 0.000002 0.000003 -0.000003 0.000002 0.000003 -0.000002 0.000003 -0.000002 0.000001 0.000002 0.000003 -0.000003 0.000002 0.000003 -0.000003 0.000002 0.000003 -0.000002 0.000003 -0.000002 0.000001 0.000000 0.000000 -0.000000 0.000000 0.000000 -0.000000 0.000000 0.000000 -0.000000 
-0.159549 63.977531 0.234410 -3.685225 -60.638925 -1.487831 0.000000 0.000001 -0.000000 -30.263776 12.318560 26.989882 43.323084 -8.437079 -9.903335 -12.283613 -2.759574 -7.062454 0.000000 -0.000002 -0.000000 -0.000002 -0.000002 -0.000001 -27.421031 -10.707279 -22.088408 46.925203 4.257361 -7.352400 -20.378605 3.122501 18.487136 0.000000 -0.000000 -0.000000 -0.000001 0.000001 -0.000001 10.639776 0.408749 -1.598671 7.369347 0.453066 -4.726276 7.573430 0.423504 -4.679429 -22.543798 25.796385 11.622068 -5.275321 25.598646 -2.912717 -0.000000 0.000000 -0.000000 -0.000000 0.000000 -0.000000 -0.000000 0.000000 -0.000000 -0.000000 0.000000 -0.000000 -0.000000 0.000000 -0.000000 -0.000000 0.000000 -0.000000 -0.000000 0.000000 -0.000000 -0.000000 0.000000 -0.000000 -0.000000 0.000000 -0.000000 -6.440488 -10.884634 -4.337061 -21.175188 6.913555 -38.724960 5.577234 -47.056663 2.897914 23.026048 -7.470499 15.124207 -1.779673 -11.806517 7.009866 1.107509 16.455722 -3.449354 0.000002 0.000002 0.000000 13.258852 -0.994116 14.824109 -0.164110 0.325375 -26.962004 0.000000 0.000004 -0.000001 8.531223 -0.380751 3.228205 0.228453 0.647211 -25.758211 -0.000000 0.000004 -0.000002 6.140631 3.125767 -12.067783 0.029522 0.294143 -25.981881 -0.000002 0.000005 -0.000004 -5.601402 7.673597 -9.738879 0.208921 0.277421 -42.444667 -0.000003 0.000002 -0.000002 0.000001 -0.000000 -0.000000 -5.599833 11.504902 2.762667 -43.512748 -24.472578 26.085469 33.347237 109.244498 -31.801149 -11.146614 20.342313 -2.590667 -0.415615 14.692869 -9.110326 -0.194276 -13.219756 4.757881 0.000000 0.000000 -0.000000 19.390127 11.163728 -18.289150 -0.122708 -0.303304 13.080230 0.000001 0.000000 0.000004 4.364102 2.481769 -9.768460 0.358305 -0.463186 21.935047 0.000001 -0.000001 0.000001 -6.968113 -10.645745 0.766211 0.113368 -0.065999 21.200561 0.000002 -0.000000 0.000002 -19.396679 -20.195425 1.033492 0.222225 -0.062860 31.889299 -0.000001 0.000003 0.000003 0.000003 0.000001 -0.000001 -0.000002 0.000000 -0.000000 -0.000001 0.000000 -0.000000 -0.000002 0.000000 -0.000001 -0.000002 0.000000 -0.000001 -0.000002 0.000000 -0.000000 -0.000001 0.000000 -0.000000 -0.000002 0.000000 -0.000001 -0.000002 0.000000 -0.000001 -0.000002 0.000000 -0.000000 -0.000001 0.000000 -0.000000 0.000000 0.000001 -0.000000 0.000000 0.000001 -0.000000 0.000000 0.000001 -0.000000 
-0.197905 64.004974 0.244836 -3.395460 -60.386870 -1.053146 -0.000000 -0.000001 -0.000000 -30.111743 11.969600 26.486470 43.147712 -8.080632 -9.832826 -12.224615 -2.741133 -7.222431 0.000000 0.000002 0.000000 -0.000001 -0.000001 0.000003 -27.536133 -10.886901 -22.378319 46.895379 4.277744 -7.349137 -20.431019 3.114057 18.485745 -0.000000 0.000002 -0.000000 -0.000000 -0.000001 -0.000001 10.688355 0.398483 -1.581234 7.474951 0.433638 -4.690576 7.681310 0.379667 -4.629604 -22.293806 25.770321 11.684726 -4.788370 25.569003 -3.031157 -0.000000 -0.000000 -0.000000 -0.000000 -0.000000 -0.000000 -0.000000 -0.000000 0.000000 -0.000000 -0.000000 -0.000000 -0.000000 -0.000000 -0.000000 -0.000000 -0.000000 -0.000000 -0.000000 -0.000000 -0.000000 -0.000000 -0.000000 -0.000000 -0.000000 -0.000000 -0.000000 -6.435435 -10.967012 -4.381021 -20.957486 7.136093 -38.771029 6.404534 -46.581303 3.444866 22.835406 -7.451220 14.856022 -1.773502 -11.778470 7.021332 1.117322 16.481817 -3.439121 0.000001 0.000002 0.000001 13.258218 -0.994231 14.793613 -0.164053 0.325091 -26.992467 0.000004 0.000001 0.000000 8.530102 -0.380828 3.197761 0.228939 0.647383 -25.788718 0.000001 0.000001 0.000001 6.140291 3.126105 -12.098272 0.029284 0.294315 -26.012340 0.000001 0.000001 -0.000005 -5.601563 7.673753 -9.769274 0.209021 0.278151 -42.475143 -0.000001 -0.000003 0.000001 -0.000002 0.000002 0.000001 -5.626212 11.414999 2.928153 -43.757259 -24.499854 25.977047 33.032403 109.869562 -31.394893 -11.032548 21.015240 -3.371323 -0.404244 14.616198 -9.139758 -0.167431 -13.288503 4.728260 -0.000000 0.000000 0.000003 19.390969 11.163731 -18.207655 -0.122626 -0.303398 13.161986 0.000001 -0.000000 -0.000001 4.362491 2.481083 -9.686597 0.358535 -0.463447 22.016877 0.000000 0.000000 -0.000004 -6.968839 -10.646385 0.847660 0.113337 -0.066686 21.282321 0.000000 0.000002 -0.000003 -19.397983 -20.196388 1.113732 0.222307 -0.063558 31.971040 0.000001 0.000001 0.000001 -0.000001 -0.000006 0.000001 -0.000000 -0.000002 0.000002 -0.000000 0.000001 -0.000000 -0.000000 -0.000002 0.000002 -0.000000 -0.000002 0.000002 -0.000000 -0.000002 0.000002 -0.000000 0.000001 -0.000000 -0.000000 -0.000002 0.000002 -0.000000 -0.000002 0.000002 -0.000000 -0.000002 0.000002 -0.000000 0.000001 -0.000000 -0.000000 -0.000001 -0.000000 -0.000000 -0.000001 -0.000000 -0.000000 -0.000001 -0.000000 
